<?xml version="1.0" encoding="UTF-8" standalone="no"?>
<!-- Created with SketchThing (http://mccormick.cx/projects/SketchThing/) -->

<svg
   xmlns:dc="http://purl.org/dc/elements/1.1/"
   xmlns:cc="http://creativecommons.org/ns#"
   xmlns:rdf="http://www.w3.org/1999/02/22-rdf-syntax-ns#"
   xmlns:svg="http://www.w3.org/2000/svg"
   xmlns="http://www.w3.org/2000/svg"
   xmlns:sodipodi="http://sodipodi.sourceforge.net/DTD/sodipodi-0.dtd"
   xmlns:inkscape="http://www.inkscape.org/namespaces/inkscape"
   version="1.1"
   width="1380.118"
   height="686.33856"
   id="svg2"
   inkscape:version="0.48.3.1 r9886"
   sodipodi:docname="we-can-do-this-cover.svg">
  <metadata
     id="metadata31">
    <rdf:RDF>
      <cc:Work
         rdf:about="">
        <dc:format>image/svg+xml</dc:format>
        <dc:type
           rdf:resource="http://purl.org/dc/dcmitype/StillImage" />
        <dc:title />
      </cc:Work>
    </rdf:RDF>
  </metadata>
  <defs
     id="defs29" />
  <sodipodi:namedview
     pagecolor="#ffffff"
     bordercolor="#666666"
     borderopacity="1"
     objecttolerance="10"
     gridtolerance="10"
     guidetolerance="10"
     inkscape:pageopacity="0"
     inkscape:pageshadow="2"
     inkscape:window-width="1920"
     inkscape:window-height="1024"
     id="namedview27"
     showgrid="false"
     inkscape:zoom="0.57064758"
     inkscape:cx="620.65935"
     inkscape:cy="193.8898"
     inkscape:window-x="0"
     inkscape:window-y="14"
     inkscape:window-maximized="1"
     inkscape:current-layer="svg2"
     borderlayer="true"
     inkscape:showpageshadow="false"
     units="cm"
     showguides="true"
     inkscape:guide-bbox="true"
     inkscape:document-units="cm">
    <sodipodi:guide
       orientation="1,0"
       position="656.89402,691.51223"
       id="guide3004" />
    <sodipodi:guide
       orientation="1,0"
       position="707.62093,677.49457"
       id="guide3006" />
    <sodipodi:guide
       orientation="1,0"
       position="0,934.30435"
       id="guide3008" />
  </sodipodi:namedview>
  <g
     id="sketch"
     inkscape:export-filename="/home/chrism/art/text/we-can-do-this/we-can-do-this-hi-rez.png"
     inkscape:export-xdpi="600.12646"
     inkscape:export-ydpi="600.12646"
     transform="translate(675.76196,55.338648)">
    <path
       style="fill:none;stroke:#000000;stroke-width:2px;stroke-linecap:butt;stroke-linejoin:miter;stroke-opacity:1"
       d="m 348,85 c -6.31087,1.61385 -13.55303,1.141965 -19.293,4.034401 -4.84342,4.765674 -12.14162,6.428916 -17.04325,10.722167 -4.78342,10.324332 -8.74839,21.472082 -7.66375,33.006462 0.8166,7.91524 5.54948,15.12995 9.61539,21.79082 6.63323,6.85869 14.43127,12.27106 23.37408,15.67649 8.81579,5.59291 19.52366,4.56068 29.48799,5.94662 12.05516,0.37352 24.27923,3.42289 36.07656,-0.28776 6.67357,-0.5931 12.5617,-3.12803 17.80317,-7.26168 6.95489,-3.069 10.02227,-10.40268 13.88976,-16.41776 4.03955,-12.20778 8.2967,-24.9445 5.85923,-37.93561 C 436.91539,106.44621 428.20821,102.43258 422,97 413.87864,93.216121 406.29464,87.657469 396.96315,87.870394 387.34416,86.033434 377.3949,88.31126 368,85 361.66904,84.366485 355.37238,83.750796 349,84"
       id="path0"
       inkscape:connector-curvature="0" />
    <path
       style="fill:none;stroke:#000000;stroke-width:2px;stroke-linecap:butt;stroke-linejoin:miter;stroke-opacity:1"
       d=""
       id="path1"
       inkscape:connector-curvature="0" />
    <path
       style="fill:none;stroke:#000000;stroke-width:2px;stroke-linecap:butt;stroke-linejoin:miter;stroke-opacity:1"
       d="M 380,88 C 370.326,85.554736 360.52567,84.385246 350.54867,85 343.33445,85.227019 336.16975,87.115628 329,88"
       id="path2"
       inkscape:connector-curvature="0" />
    <path
       style="fill:none;stroke:#000000;stroke-width:2px;stroke-linecap:butt;stroke-linejoin:miter;stroke-opacity:1"
       d="m 343,150 c 8.66667,0 17.33333,0 26,0"
       id="path3"
       inkscape:connector-curvature="0" />
    <path
       style="fill:none;stroke:#000000;stroke-width:2px;stroke-linecap:butt;stroke-linejoin:miter;stroke-opacity:1"
       d="m 394,150 c 6.26559,-0.20108 13.39228,2.03774 19,0 2.32689,0.7192 2.65983,-1.69799 5,-1"
       id="path4"
       inkscape:connector-curvature="0" />
    <path
       style="fill:none;stroke:#000000;stroke-width:2px;stroke-linecap:butt;stroke-linejoin:miter;stroke-opacity:1"
       d="m 334,167 c 0.10598,7.8558 1.64885,15.71373 1.69193,23.4646 -1.53218,10.04169 1.43497,20.18721 -0.58575,30.26125 -1.29696,5.27579 0.24818,9.64827 6.35263,8.62541 15.51465,2.05712 31.07722,-2.94865 46.67165,-1.0759 6.93223,0.39204 14.25438,1.81607 20.69747,-1.27536 5.40254,1.11823 8.23612,-2.98244 8.17207,-8 -0.38342,-15.32165 0.92082,-30.77989 -1,-46"
       id="path5"
       inkscape:connector-curvature="0" />
    <path
       style="fill:none;stroke:#000000;stroke-width:2px;stroke-linecap:butt;stroke-linejoin:miter;stroke-opacity:1"
       d="m 419,174 c 2.40326,4.64259 3.63923,10.38584 6.74052,14.37026 3.78405,3.02448 4.85265,8.8096 9.25948,11.62974 1.49595,6.30001 7.14769,10.59584 8,17 2.5021,2.683 4.51092,9.18964 6.58543,10.41457 C 461.57674,213.24512 467.9085,195.16014 480,181 c -0.38385,-2.48696 -1.08459,-5.48305 3.65585,-2 8.01516,1.6551 -2.71534,-3.94925 3.81413,-3.36397 -5.44193,7.09588 -4.0138,4.16959 -0.44922,-1.8734 0.98047,-3.66847 8.19999,6.88377 5.67219,8.25396 -4.06886,3.11329 -9.01562,9.12608 -9.52564,0.48534 -2.22783,-4.00018 1.10816,-11.15125 5.2915,-11.85319 7.26608,-3.26108 3.74811,5.91194 4.54119,10.11429 -3.44779,0.33715 -11.86188,5.27536 -10.45715,-1.87734 -3.55824,-4.21776 6.58248,-12.2643 5.9255,-5.60727 3.7137,4.1288 -9.34225,10.63773 -5.66514,4.50876 0.27566,-8.247 7.95836,-3.2305 3.59038,2.63846 -3.87696,3.06565 -0.6358,-10.52229 3.34693,-5.9446 4.79846,5.53032 1.94748,8.31629 -4.3062,9.88148 -3.00336,0.19211 -10.10442,-6.50523 -5.24032,-9.87292 1.22199,-4.73463 8.48584,-7.61647 11.7245,-5.11185 4.9694,3.85471 1.32127,9.30047 -1.65902,12.99251 C 488.50632,183.24684 486.75316,184.12342 485,185"
       id="path6"
       inkscape:connector-curvature="0" />
    <path
       style="fill:none;stroke:#000000;stroke-width:2px;stroke-linecap:butt;stroke-linejoin:miter;stroke-opacity:1"
       d=""
       id="path7"
       inkscape:connector-curvature="0" />
    <path
       style="fill:none;stroke:#000000;stroke-width:2px;stroke-linecap:butt;stroke-linejoin:miter;stroke-opacity:1"
       d=""
       id="path8"
       inkscape:connector-curvature="0" />
    <path
       style="fill:none;stroke:#000000;stroke-width:2px;stroke-linecap:butt;stroke-linejoin:miter;stroke-opacity:1"
       d="m 425,185 c -3,-4.33333 -6,-8.66667 -9,-13"
       id="path9"
       inkscape:connector-curvature="0" />
    <path
       style="fill:none;stroke:#000000;stroke-width:2px;stroke-linecap:butt;stroke-linejoin:miter;stroke-opacity:1"
       d="m 336,170 c -5.1254,6.48734 -11.49588,12.51274 -15.4016,19.60641 -1.38814,5.25004 -4.60829,9.98287 -7.5984,14.39359 0.71729,0.0247 -4.39196,7.05173 -4.89801,11.04105 -0.64481,5.06583 -1.59891,9.35957 -5.10199,12.78688 -2.81029,6.43747 -3.73479,14.24135 -6,21.17207 -0.93135,8.8646 -1.95823,17.76814 -2.4016,26.60641 -0.74554,3.87946 -2.70025,10.75068 -2.5984,12.39359 -0.64327,1.70119 8.39993,-9.59868 5.76583,-1.36079 1.03161,7.89553 -5.72195,5.47816 -7.73987,0.0621 C 286.17548,283.075 289.0341,277.00647 291,273 c 3.64889,-0.36562 13.13472,-3.40084 9.02159,3.28295 C 299.17967,281.4409 294.49415,284.75702 290,281 c -2.89915,-4.91818 5.92916,-6.49583 9,-9 1.90018,3.75072 -2.04421,9.64396 -6.22156,11.11078 -4.74506,2.9748 1.19359,-11.54794 3.22156,-4.11078 0.91253,7.04836 -8.04651,1.37861 -7.41457,-1.58543 2.28261,-4.01602 11.78262,-3.70904 6.49212,1.89156 C 294.4277,285.64697 285.82239,276.36891 291,274 c 4.08241,-6.31999 7.73117,-1.62123 7.54075,3.68888 -1.97559,3.70835 -7.91613,10.04939 -9.39205,2.60853 L 289,280"
       id="path10"
       inkscape:connector-curvature="0" />
    <path
       style="fill:none;stroke:#000000;stroke-width:2px;stroke-linecap:butt;stroke-linejoin:miter;stroke-opacity:1"
       d="m 347,228 c -0.0348,7.73594 -0.58609,15.46471 2.07761,22.84926 1.47028,6.32912 0.64965,12.90971 2.92239,19.15074 -0.42129,5.00219 -0.03,9.81256 3,14 -1.56871,4.38267 0.89602,9.6026 0,14.48378 1.48763,4.00602 1.87659,-7.41183 2,-9.96756 -0.0921,-14.51476 -0.6038,-29.17537 3.07496,-43.34075 1.09303,-4.99351 0.0148,-9.87592 0.92504,-14.17547 2.18165,-6.27464 -0.0846,3.07646 -0.23417,6.63921 -2.55698,17.47413 -4.27604,35.10479 -5.76583,52.67249 0,9.10035 0,5.07407 0,-1.59095 -0.41603,-17.79446 -2.08,-35.76363 -5,-53.20453 -0.308,-9.03707 -0.98703,0.82348 1.17842,4.4713 2.68477,9.08636 3.87369,18.66335 1.82158,28.01248 2.56054,5.89086 1.86444,12.67415 2,19 -0.22046,-17.86345 0.44018,-35.81415 -0.32474,-53.62369 -1.4316,-7.83606 -0.20634,5.34671 0.0743,7.86894 0.5734,11.56269 0.0903,23.17331 0.25043,34.75475 -0.6065,-15.36267 1.0923,-30.65338 1,-46 1.97032,7.07004 -1.0803,14.45233 -0.82549,21.73132 -0.7488,7.40889 -1.50088,14.80943 -1.1745,22.26868 -2.01871,-2.53675 1.39437,-9.42162 1.16476,-13.64763 C 356.16573,250.23254 356.84412,240.04639 358,230 c -2.5125,7.46011 0.31155,15.98136 -1.88124,23.72808 C 354.96668,259.09247 354.86671,264.53732 355,270 c -1.15825,-12.00941 -1.49847,-24.55512 -6.58543,-35.58543 0.88892,-2.50296 0.55134,8.10726 1.50965,10.97922 0.59114,8.4223 2.97724,16.69971 2.07578,25.26206 1.16986,8.89098 1.28071,-2.25965 0.65622,-5.78118 C 351.15119,257.59892 353.62891,249.73491 350,243 c 0.24634,-2.76893 1.01246,-15.44229 2.54444,-7.73336 2.48604,9.74592 0.68694,20.10688 3.45556,29.73336 -1.73491,-8.26475 0.0333,-16.83945 -3.39626,-24.78627 -2.22811,-4.92695 6.4e-4,-8.88559 4.56712,-10.38459 3.48253,-0.11663 2.8872,8.34983 1.30551,11.74174 -2.56063,7.10186 -1.59443,15.13829 -3.21456,22.21456 2.04455,3.0555 -1.68872,13.45819 0.1501,5.09548 -0.0498,-6.12828 3.22474,-11.57699 2.8499,-17.66636 2.38084,-5.34809 1.61246,-11.24562 2.73819,-16.87041 -0.25669,-1.09272 0.16681,-1.70513 1,-2.34415"
       id="path11"
       inkscape:connector-curvature="0" />
    <path
       style="fill:none;stroke:#000000;stroke-width:2px;stroke-linecap:butt;stroke-linejoin:miter;stroke-opacity:1"
       d="m 358,277 c -1.28468,8.48545 -4.2134,16.93999 -1.64874,25.45881 2.13365,7.82016 -3.77982,15.85254 -0.35126,23.54119 -1.69132,9.67178 -0.77105,-0.7693 -1,-4.9351 0,-12.35497 0,-24.70993 0,-37.0649 -0.21465,12.89499 0.10779,25.81477 0.81714,38.64572 -1.22798,5.79865 -0.68287,11.51112 0.18286,17.18221 -1.01277,3.72713 -1.92746,8.59291 0,12 -0.83198,3.6931 -1.26888,11.98351 -1,3.68829 0.30879,-14.14412 -0.25923,-28.31929 -1.90857,-42.33908 C 353.00229,305.89831 356.75456,299.27403 356,292 c 0.34237,10.08861 -0.29018,20.11652 -1,30.13963 0.11553,8.86982 -0.444,17.99599 0.73819,26.64581 -1.05897,5.27336 0.7923,11.4332 0.96433,2.29694 C 358.8026,341.43601 357.70018,331.4162 355,322 c 2.19361,5.50165 1.84693,11.12132 1.09143,16.82286 0.12136,3.74651 1.75017,7.64779 -0.0914,11.17714"
       id="path12"
       inkscape:connector-curvature="0" />
    <path
       style="fill:none;stroke:#000000;stroke-width:2px;stroke-linecap:butt;stroke-linejoin:miter;stroke-opacity:1"
       d="m 356,358 c -8.7407,-1.62906 -17.39921,-6.8565 -26.30663,-3.53867 -7.75909,0.83616 -6.42976,0.52722 0.67131,1.6717 9.1255,1.61741 18.38041,2.13346 27.63532,1.86697 -12.98655,-0.4959 -26.14554,1.09183 -39,-1 -0.89966,0.48053 8.53296,0.88993 11.95788,1.30987 C 339.64481,359.16993 348.356,359.21535 357,358 c -10.61393,-1.8896 -21.28821,0.50019 -32,0 0.15967,-0.64464 9.12406,-2.47553 12.71662,-2.95277 6.79689,-0.17487 13.70487,0.4349 20.28338,-1.04723 -5.54042,-3.57483 -12.5861,-1.60528 -18.80321,-1.7992 -4.29451,0.16763 -9.32746,3.16939 -11.78222,3.21377 -1.44725,2.58356 8.25283,-0.21875 11.70451,0.17352 5.29364,-1.0446 10.58728,-0.0935 15.88092,0.41191 -5.23808,-1.97508 -10.5089,0.96068 -16,0"
       id="path13"
       inkscape:connector-curvature="0" />
    <path
       style="fill:none;stroke:#000000;stroke-width:2px;stroke-linecap:butt;stroke-linejoin:miter;stroke-opacity:1"
       d="m 410,227 c -4.28498,18.60482 -5.21825,37.73216 -7.4016,56.60641 -1.72958,3.82818 -2.23711,13.82027 -1.74425,4.9141 -0.64927,-14.99875 -2.75303,-29.90897 -3.85415,-44.83221 0.3976,-5.00738 -0.78241,-10.66823 0.58543,-15.27373 0.48695,-3.55152 0.27831,4.5103 0.68886,8.05401 1.01337,12.42629 3.64895,24.83291 4.45349,37.16474 C 401.40197,279.6659 402.22829,285.87659 402,292 c 2.36141,-17.17816 -0.41409,-34.65762 2.48287,-51.82869 C 404.95855,235.45178 405.69202,230.40465 404,226 c -0.0614,10.87962 -1.04345,21.78774 -1.32474,32.62369 -1.37078,4.6147 -0.48716,9.7742 -0.0455,14.11683 -4.24906,2.39459 -0.31382,12.24823 -1.22814,9.65307 C 404.72671,270.90863 402.74969,258.70076 405,247 c -1.78354,-5.70359 0.13455,-11.31211 1,-17 4.28791,-4.64524 0.32677,6.45868 0.53165,9.27842 -1.07154,9.11698 0.24887,18.47569 -2.85639,27.34527 -0.91612,2.86667 -0.74022,10.61956 -0.84733,10.37631 0.36954,-11.08281 5.23086,-22.31476 5.49681,-33.62369 1.2924,-5.01976 0.41555,-10.2543 0.67526,-15.37631 -2.61164,-4.65518 -2.71362,6.51358 -3.81185,9.05924 -2.62676,9.03269 -2.62139,18.38834 -1.18815,27.59661 0,4.78138 0,9.56277 0,14.34415 -0.55749,-7.19134 -1.55897,-14.54008 -5,-21 0.6163,-7.64692 2.86569,-15.64338 1,-23 -0.1553,-6.82183 -1.73643,-2.62177 -0.72778,2.63332 1.72065,5.77171 -1.47494,11.60058 0.72778,17.36668 -0.52158,7.50117 3.31185,14.54557 3,22 0.39647,-0.17362 -1.89077,-8.31272 -1,-11.79548 -0.66273,-9.01519 -3.04964,-17.845 -3.4016,-26.81093 C 397.43454,236.3779 397.84826,224.20237 399,230 c 3.57128,3.67834 -0.17897,8.7958 1,13.48378 1.15595,9.12344 3.46154,18.23102 4,27.51622 2.3969,8.5455 -2.32465,-3.4057 -1.57667,-6.76671 -1.03592,-6.71242 1.54696,-13.40695 -0.42333,-20.06122 0.35908,-4.38002 -0.89906,-9.42992 1,-13.17207 -0.83802,-1.79591 -1.00947,0.27554 -1,6 -0.14498,9.81015 -0.0978,19.6044 1,29.3117 -0.26751,6.71922 0.69692,7.48725 -0.90979,0.50402 -2.75181,-4.93198 2.74258,-9.61107 -0.0644,-14.6868 C 403.51186,245.16807 404.94402,237.92659 403,231 c 1.91242,-0.36392 2.07631,8.9732 2,12.6234 -2.42264,10.04731 0.84592,20.77966 -3,30.3766 -0.2405,6.91562 0.12363,13.87746 0.76583,20.63921 -1.50167,8.16364 1.12175,16.3906 0.23417,24.67249 -0.26108,9.73575 0.75104,19.67811 -1,29.17208 0.37083,5.77714 -0.64909,-6.53448 -1.62369,-8.60225 -0.30728,-9.98217 1.19173,-20.11708 0.62369,-30.19323 0.11075,-7.89564 -1.76223,-15.66148 0.0824,-23.51212 1.00293,-7.02396 1.00669,-14.09775 0.9176,-21.17618 2.26995,-0.46761 0.36898,9.13429 1,12.6234 0.58193,12.79182 -1.66592,25.40747 -1,38.20453 0,9.05735 0,18.11471 0,27.17207 5.09077,2.66411 -0.96828,7.88105 2,8"
       id="path14"
       inkscape:connector-curvature="0" />
    <path
       style="fill:none;stroke:#000000;stroke-width:2px;stroke-linecap:butt;stroke-linejoin:miter;stroke-opacity:1"
       d="m 406,348 c 8.38437,-0.18208 16.73725,-0.0461 25,1 6.66676,-0.55629 -5.87088,0.85949 -8.48378,1 -5.44689,-0.14773 -10.84826,-0.10259 -16,1 -7.59657,0.0763 3.02281,-0.339 5.56708,0.68055 7.88773,1.59103 15.91658,1.35863 23.9167,1.31945 -7.80366,2.26158 -15.89471,2.1886 -24,2 -2.52202,-0.21551 -14.24075,3.21941 -10.17207,1 4.59679,1.83649 9.20843,2.15507 14,1 6.83364,0.14424 13.31013,-3.12068 20.17207,-3 -9.11598,-2.0989 -18.6874,-0.49824 -28,-1 -7.90792,2.72921 -4.72813,-0.84612 1.57088,-1.52363 5.95056,-3.11486 13.17017,0.50347 18.61275,-4.06819 6.60054,-4.1895 -3.69535,0.0967 -6.81695,-0.13596 C 415.65945,347.46784 410.70264,351.30517 405,351 c 10.06012,0.37596 20.09265,-0.34731 30,-2 -7.57301,0.33605 -15.18172,-0.33657 -22.63332,-0.72778 -4.39412,-0.54636 -10.15164,2.96985 -10.20431,2.91593 1.46848,-7.9797 1.87154,-16.13859 3.83763,-24.01608 0.0273,-2.39346 -1.082,-12.7244 -1.6024,-7.76245 -2.71363,10.09935 -6.69652,21.06243 -1.87397,31.16126 1.52586,8.69161 -1.97696,4.94496 0.0618,-1.6689 C 403.27806,344.24199 404.58977,339.72047 405,335"
       id="path15"
       inkscape:connector-curvature="0" />
    <path
       style="fill:none;stroke:#000000;stroke-width:2px;stroke-linecap:butt;stroke-linejoin:miter;stroke-opacity:1"
       d=""
       id="path16"
       inkscape:connector-curvature="0" />
    <path
       style="fill:none;stroke:#000000;stroke-width:2px;stroke-linecap:butt;stroke-linejoin:miter;stroke-opacity:1"
       d="m 485,196 c 2.33894,-10.73613 5.38787,-21.41968 5.35126,-32.45881 -0.0568,-4.16338 3.59105,-13.97068 2.64874,-4.57364 -2.27479,9.08762 -4.67737,18.23828 -6.60641,27.45809 -2.86803,2.15181 -3.76508,11.29799 -1.65307,6.09332 3.52305,-9.14425 3.11739,-19.4584 5.74659,-28.9545 2.32427,-3.13624 3.09551,-11.63391 0.18815,-3.94077 -1.59572,9.90141 -6.97356,19.08498 -6.98274,29.14502 -3.10811,4.91419 -2.91147,9.93586 3.30748,5.23129 1.84162,-5.43664 0.92365,-11.72242 2.35126,-17.45881 0.7546,-8.36537 2.77076,-16.5823 5.64874,-24.36912 0.10702,-0.53119 -0.22308,9.02674 -1.78544,12.18425 C 490.2298,174.30778 486.58791,184.49739 487,195 c -3.75422,-2.39369 -0.87846,-9.30108 -0.51289,-13.43554 C 488.28205,174.12015 489.57727,166.68672 489,159 l 0.82793,0 0.17207,0"
       id="path17"
       inkscape:connector-curvature="0" />
    <path
       style="fill:none;stroke:#000000;stroke-width:2px;stroke-linecap:butt;stroke-linejoin:miter;stroke-opacity:1"
       d=""
       id="path18"
       inkscape:connector-curvature="0" />
    <path
       style="fill:none;stroke:#000000;stroke-width:2px;stroke-linecap:butt;stroke-linejoin:miter;stroke-opacity:1"
       d="m 502,153 c -9.03075,0.39383 -18.28487,2.37033 -27,-1 14.86035,2.7873 29.79677,6.47571 45,6 -10.80841,0.37598 -21.30747,-2.52403 -31.84034,-4.117 -5.22239,-0.65507 -9.8661,-3.49082 -15.15966,-2.883 2.5656,2.09435 9.46272,1.32998 13.63787,2.6366 8.0592,1.5746 16.11542,2.95867 24.36213,2.3634 -8.78304,-1.89781 -17.87245,-2.03062 -26.64306,-4.20538 C 479.607,150.95623 474.80717,150.91906 470,151 c 8.34021,-0.68187 16.48282,0.82778 24.65585,2 7.27356,-0.4856 13.9675,3.89412 21.34415,3 -8.40557,0.42928 -16.4277,-2.81178 -24.79607,-3.22745 C 486.33764,150.74164 481.16673,150.88572 476,151 c 9.72483,-0.4674 19.17488,3.37124 28.90078,1.17493 3.91478,-0.27565 12.08928,-0.29136 13.28737,-0.0126 -7.62521,1.9165 -15.49871,-1.4763 -23.18815,0.83763 -7.04138,-0.42059 -13.9209,-2.42682 -21,-2 11.34891,0.10763 22.71355,-0.48191 34,1"
       id="path19"
       inkscape:connector-curvature="0" />
    <path
       style="fill:none;stroke:#000000;stroke-width:2px;stroke-linecap:butt;stroke-linejoin:miter;stroke-opacity:1"
       d="m 487,151 c 0.71809,-8.54645 0.73766,-17.31871 1.37026,-25.74052 4.72198,-8.47322 4.58168,-18.64107 6.34858,-28.010203 0.38732,-7.90316 2.042,-15.568846 4.28116,-23.077202 -0.94746,-5.034877 3.20345,-9.087899 2,-14.172075 0.4875,-5.722951 2.99361,-12.18269 1.41457,-17.585431 2.64008,-1.285939 1.54768,-7.411417 4.41336,-9.414569 0.76146,-1.945221 8.48049,-5.469431 7.17207,-6.172075 3.82653,-1.416612 2.37849,-4.567091 4,-0.827925 1.35526,2.401023 3.28794,7.82168 6.58543,10.585431 0.94028,4.691348 0.15443,-1.001529 0.41457,4.070419 -5.22719,9.33105 -5.70834,20.790984 -8,31.172075 0.91029,6.200154 -1.12264,11.775716 -4,17.172075 -2.71249,8.768691 -1.59507,17.98481 -4.13611,26.81666 -0.54018,7.89736 -4.60408,15.05481 -4,23 C 504.32703,143.59042 502.46764,148.14062 503,153 l -0.58543,0.58543 L 502,154"
       id="path20"
       inkscape:connector-curvature="0" />
    <path
       style="fill:none;stroke:#000000;stroke-width:2px;stroke-linecap:butt;stroke-linejoin:miter;stroke-opacity:1"
       d="m 515,41 c -1.38659,6.663351 -6.56168,13.090839 -4,20 -0.006,8.672205 -3.42707,17.119484 -3.30748,25.768709 -2.73385,5.558211 -4.51173,11.300524 -3.69252,17.542991 -0.0253,5.07824 -3.99815,9.41743 -3.41191,14.80738 -0.78267,8.99414 -0.35613,18.12531 -3.8499,26.66636 C 495.69571,148.82213 494.6789,151.85699 494,155"
       id="path21"
       inkscape:connector-curvature="0" />
  </g>
  <text
     xml:space="preserve"
     style="font-size:48px;font-style:normal;font-variant:normal;font-weight:normal;font-stretch:normal;text-align:center;line-height:125%;letter-spacing:0px;word-spacing:0px;text-anchor:middle;fill:#000000;fill-opacity:1;stroke:none;font-family:ChrisMcCormickTwentyEleven;-inkscape-font-specification:ChrisMcCormickTwentyEleven"
     x="1061.3528"
     y="524.37543"
     id="text3824"
     sodipodi:linespacing="125%"><tspan
       sodipodi:role="line"
       id="tspan3826"
       x="1061.3528"
       y="524.37543">we can do this</tspan></text>
  <text
     xml:space="preserve"
     style="font-size:32px;font-style:normal;font-variant:normal;font-weight:normal;font-stretch:normal;text-align:end;line-height:125%;letter-spacing:0px;word-spacing:0px;text-anchor:end;fill:#000000;fill-opacity:1;stroke:none;font-family:ChrisMcCormickTwentyEleven;-inkscape-font-specification:ChrisMcCormickTwentyEleven"
     x="1303.9912"
     y="610.9856"
     id="text3828"
     sodipodi:linespacing="125%"><tspan
       sodipodi:role="line"
       id="tspan3830"
       x="1303.9912"
       y="610.9856">by dad</tspan></text>
  <text
     xml:space="preserve"
     style="font-size:28px;font-style:normal;font-variant:normal;font-weight:normal;font-stretch:normal;text-align:center;line-height:125%;letter-spacing:0px;word-spacing:0px;text-anchor:middle;fill:#000000;fill-opacity:1;stroke:none;font-family:ChrisMcCormickTwentyEleven;-inkscape-font-specification:ChrisMcCormickTwentyEleven"
     x="326.36276"
     y="209.8006"
     id="text3832"
     sodipodi:linespacing="125%"><tspan
       sodipodi:role="line"
       x="326.36276"
       y="209.8006"
       id="tspan3086">for scout</tspan><tspan
       sodipodi:role="line"
       x="326.36276"
       y="244.8006"
       id="tspan3092" /><tspan
       sodipodi:role="line"
       x="326.36276"
       y="279.8006"
       id="tspan3101">because life doesn't come with instructions</tspan></text>
  <text
     sodipodi:linespacing="125%"
     id="text3864"
     y="569.8006"
     x="326.36276"
     style="font-size:28px;font-style:normal;font-variant:normal;font-weight:normal;font-stretch:normal;text-align:center;line-height:125%;letter-spacing:0px;word-spacing:0px;text-anchor:middle;fill:#000000;fill-opacity:1;stroke:none;font-family:ChrisMcCormickTwentyEleven;-inkscape-font-specification:ChrisMcCormickTwentyEleven"
     xml:space="preserve"><tspan
       id="tspan3878"
       y="569.8006"
       x="326.36276"
       sodipodi:role="line"
       style="font-size:22px">copyright chris mccormick 2010-2013</tspan><tspan
       y="597.3006"
       x="326.36276"
       sodipodi:role="line"
       id="tspan3907"
       style="font-size:22px">creative commons CC BY-SA licensed</tspan></text>
</svg>
